<svg width="20" height="21" viewBox="0 0 20 21" fill="none" xmlns="http://www.w3.org/2000/svg">
<path d="M2.49963 8.625H6.24963V16.75H2.49963C2.33387 16.75 2.1749 16.6842 2.05769 16.5669C1.94048 16.4497 1.87463 16.2908 1.87463 16.125V9.25C1.87463 9.08424 1.94048 8.92527 2.05769 8.80806C2.1749 8.69085 2.33387 8.625 2.49963 8.625V8.625Z" stroke="#9593A5" stroke-width="1.5" stroke-linecap="round" stroke-linejoin="round" fill="none"/>
<path d="M6.24963 8.625L9.37463 2.375C9.70294 2.375 10.028 2.43966 10.3313 2.5653C10.6347 2.69094 10.9103 2.87509 11.1424 3.10723C11.3745 3.33938 11.5587 3.61498 11.6843 3.91829C11.81 4.22161 11.8746 4.5467 11.8746 4.875V6.75H16.7087C16.8859 6.75 17.0611 6.78769 17.2227 6.86058C17.3842 6.93346 17.5285 7.03987 17.6458 7.17275C17.7631 7.30562 17.8508 7.46192 17.903 7.63128C17.9553 7.80063 17.971 7.97917 17.949 8.15504L17.0115 15.655C16.9737 15.9574 16.8268 16.2355 16.5984 16.4371C16.37 16.6387 16.0758 16.75 15.7712 16.75H6.24963" stroke="#9593A5" stroke-width="1.5" stroke-linecap="round" stroke-linejoin="round" fill="none"/>
</svg>
