<svg width="20" height="21" viewBox="0 0 20 21" fill="none" xmlns="http://www.w3.org/2000/svg">
<path d="M16.6704 9.06397L10.42 3.38154C10.3049 3.27694 10.155 3.21899 9.99955 3.21899C9.84406 3.219 9.69415 3.27696 9.57911 3.38157L3.32954 9.06397C3.26511 9.12255 3.21364 9.19395 3.17842 9.27358C3.14319 9.35321 3.125 9.43932 3.125 9.5264V16.75C3.125 16.9157 3.19085 17.0747 3.30806 17.1919C3.42527 17.3091 3.58424 17.375 3.75 17.375H16.25C16.4158 17.375 16.5747 17.3091 16.6919 17.1919C16.8092 17.0747 16.875 16.9157 16.875 16.75V9.52642C16.875 9.43934 16.8568 9.35322 16.8216 9.27358C16.7863 9.19395 16.7349 9.12255 16.6704 9.06397Z" stroke="#9593A5" stroke-width="1.5" stroke-linecap="round" stroke-linejoin="round" fill="none"/>
</svg>
