<svg width="20" height="20" viewBox="0 0 20 20" fill="none" xmlns="http://www.w3.org/2000/svg">
<path d="M10 17.5C14.1421 17.5 17.5 14.1421 17.5 10C17.5 5.85786 14.1421 2.5 10 2.5C5.85786 2.5 2.5 5.85786 2.5 10C2.5 14.1421 5.85786 17.5 10 17.5Z" stroke="#9593A5" stroke-width="1.5" stroke-miterlimit="10" fill="none"/>
<path d="M16.7317 13.3103L12.4905 10.7018C12.4162 10.6561 12.3331 10.6265 12.2466 10.6148L10.4639 10.3745C10.33 10.3565 10.1939 10.3823 10.076 10.4481C9.95799 10.5139 9.86451 10.6161 9.80952 10.7395L8.73931 13.1409C8.68954 13.2526 8.67361 13.3764 8.69351 13.497C8.71341 13.6177 8.76826 13.7298 8.85126 13.8196L10.32 15.4083C10.3866 15.4803 10.4353 15.567 10.4622 15.6613C10.489 15.7556 10.4933 15.8549 10.4747 15.9512L10.1755 17.4978" stroke="#9593A5" stroke-width="1.5" stroke-linecap="round" stroke-linejoin="round" fill="none"/>
<path d="M5.07442 4.3443L4.37565 5.99662C4.31335 6.14395 4.3099 6.30956 4.36603 6.45935L5.26375 8.8553C5.30051 8.95342 5.36135 9.04072 5.44067 9.10917C5.51999 9.17763 5.61525 9.22504 5.71769 9.24706L7.3919 9.6069C7.4848 9.62686 7.57192 9.66775 7.64665 9.72645C7.72137 9.78514 7.78173 9.8601 7.82313 9.94563L8.12044 10.5598C8.17161 10.6656 8.25152 10.7547 8.35101 10.8171C8.45051 10.8795 8.56557 10.9125 8.683 10.9125H9.73242" stroke="#9593A5" stroke-width="1.5" stroke-linecap="round" stroke-linejoin="round" fill="none"/>
<path d="M11.9108 2.74597L12.64 4.0521C12.709 4.17557 12.734 4.31877 12.711 4.45831C12.688 4.59784 12.6184 4.72546 12.5135 4.82031L10.4111 6.72168C10.3754 6.75395 10.3362 6.78199 10.294 6.80525L9.33765 7.3334C9.24514 7.38449 9.14119 7.41128 9.03551 7.41128H7.3679C7.24493 7.41128 7.12468 7.44756 7.02223 7.51558C6.91977 7.5836 6.83966 7.68032 6.79192 7.79366L6.14136 9.33806" stroke="#9593A5" stroke-width="1.5" stroke-linecap="round" stroke-linejoin="round" fill="none"/>
</svg>
