<svg width="18" height="17" viewBox="0 0 18 17" fill="none" xmlns="http://www.w3.org/2000/svg">
<path fill-rule="evenodd" clip-rule="evenodd" d="M6.49999 1.74939C5.20706 1.74939 3.96709 2.263 3.05285 3.17724C2.13861 4.09148 1.625 5.33145 1.625 6.62438V11.4994H6.50001C7.79294 11.4994 9.03291 10.9858 9.94715 10.0715C10.8614 9.1573 11.375 7.91733 11.375 6.6244V6.62439C11.375 5.33146 10.8614 4.09148 9.94715 3.17724C9.03291 2.263 7.79293 1.74939 6.5 1.74939H6.49999ZM6.50001 12.9994H1.34375C1.02052 12.9994 0.710525 12.871 0.481964 12.6424C0.253403 12.4139 0.125 12.1039 0.125 11.7806V6.62437C0.125001 4.93362 0.79665 3.31212 1.99219 2.11658C3.18773 0.921038 4.80924 0.249389 6.49999 0.24939H6.5C8.19076 0.24939 9.81226 0.92104 11.0078 2.11658C12.2033 3.31213 12.875 4.93363 12.875 6.62439V6.6244C12.875 8.31515 12.2034 9.93666 11.0078 11.1322C9.81227 12.3277 8.19076 12.9994 6.50001 12.9994Z" fill="#9594A5"/>
<path fill-rule="evenodd" clip-rule="evenodd" d="M11.0585 4.71661C11.0811 4.30302 11.4348 3.98609 11.8484 4.00874C13.4764 4.09789 15.0084 4.80741 16.1293 5.99141C17.2503 7.17541 17.875 8.74389 17.875 10.3744L17.875 15.5306C17.875 15.8539 17.7466 16.1638 17.518 16.3924C17.2895 16.621 16.9795 16.7494 16.6562 16.7494H11.5C10.1816 16.7494 8.89554 16.3407 7.81893 15.5797C6.74231 14.8187 5.92802 13.7427 5.48813 12.4998C5.34993 12.1094 5.55443 11.6808 5.94491 11.5426C6.33539 11.4044 6.76397 11.6089 6.90217 11.9994C7.2386 12.9499 7.86136 13.7728 8.68475 14.3548C9.50814 14.9368 10.4917 15.2494 11.5 15.2494H16.375L16.375 10.3744C16.375 10.3744 16.375 10.3744 16.375 10.3744C16.375 9.12753 15.8972 7.92809 15.04 7.02267C14.1828 6.11725 13.0113 5.57467 11.7663 5.5065C11.3527 5.48385 11.0358 5.1302 11.0585 4.71661Z" fill="#9594A5"/>
</svg>
