<svg width="172" height="27" viewBox="0 0 172 27" fill="none" xmlns="http://www.w3.org/2000/svg">
<path d="M12.9331 20.8098H15.9931V4.16643H12.9331V11.8462H3.05993V4.16643H0V20.8098H3.05993V12.7734H12.9331V20.8098Z" fill="#383741"/>
<path d="M17.3474 15.1035C17.3474 18.8929 20.4788 20.9762 23.9046 20.9762C27.3305 20.9762 30.4618 18.8929 30.4618 15.1273C30.4618 11.3855 27.3305 9.23077 23.9046 9.23077C20.4788 9.23077 17.3474 11.3141 17.3474 15.1035ZM20.4074 15.1035C20.4074 12.0601 21.8824 10.1977 23.9046 10.1977C25.9506 10.1977 27.4257 12.1077 27.4257 15.1035C27.4257 18.1469 25.9506 20.0331 23.9046 20.0331C21.8824 20.0331 20.4074 18.1469 20.4074 15.1035Z" fill="#383741"/>
<path d="M31.5378 20.8098H34.5263V13.986C34.8356 11.5133 36.1441 10.2452 37.7143 10.2452C39.1893 10.2452 39.9982 11.2993 39.9982 13.4629V20.8098H43.0106V14.2C43.2485 11.6084 44.6046 10.2452 46.2223 10.2452C47.6974 10.2452 48.5063 11.2993 48.5063 13.4629V20.8098H51.5186V13.2252C51.5186 10.8713 49.2676 9.23077 46.7933 9.23077C45.009 9.23077 43.5578 10.0629 42.6537 11.4657C42.0589 10.0867 40.0696 9.23077 38.2853 9.23077C36.6199 9.23077 35.2401 9.96783 34.336 11.1804L34.0808 10.5428C33.8038 9.85062 32.7725 9.3972 32.0304 9.3972H31.5378V20.8098Z" fill="#383741"/>
<path d="M59.3326 9.23077C55.883 9.23077 52.7517 11.1313 52.7517 15.1273C52.7517 18.8929 55.8354 20.9762 59.4278 20.9762C62.14 20.9762 65.2951 19.939 65.6995 17.3385H64.6126C63.7676 17.3385 62.7144 17.9644 62.222 18.6549C61.6043 19.5209 60.6269 20.0331 59.4992 20.0331C57.4532 20.0331 55.883 18.2657 55.8116 15.365H65.6757V14.3902C65.6281 10.6959 62.3065 9.23077 59.3326 9.23077ZM59.3564 10.1977C60.998 10.1977 62.7585 11.8699 62.8061 14.3902H55.8354C56.0495 11.751 57.5721 10.1977 59.3564 10.1977Z" fill="#383741"/>
<path d="M70.3516 12.4881C70.3516 17.7278 74.6011 21 79.4782 21C84.3553 21 88.6048 17.7278 88.6048 12.4881C88.6048 7.24839 84.3553 4 79.4782 4C74.6011 4 70.3516 7.24839 70.3516 12.4881ZM73.5067 12.4881C73.5067 7.99441 76.0523 5.01445 79.4782 5.01445C82.9279 5.01445 85.4735 7.99441 85.4735 12.4881C85.4735 16.9818 82.9279 19.9855 79.4782 19.9855C76.0523 19.9855 73.5067 16.9818 73.5067 12.4881Z" fill="#383741"/>
<path d="M90.1083 20.8098H93.0969V14.0573C93.4299 11.5371 95.0001 10.2452 96.6655 10.2452C98.2595 10.2452 99.1635 11.3706 99.1635 13.4629V20.8098H102.176V13.2252C102.176 10.8238 99.8297 9.23077 97.2603 9.23077C95.4759 9.23077 93.9533 9.99161 92.9541 11.2755L92.6541 10.5353C92.3752 9.84713 91.3459 9.3972 90.6067 9.3972H90.1083V20.8098Z" fill="#383741"/>
<path d="M109.633 9.23077C106.183 9.23077 103.416 11.3141 103.416 15.1273C103.416 18.8929 106.136 20.9762 109.728 20.9762C112.44 20.9762 115.596 19.939 116 17.3385H114.913C114.068 17.3385 113.015 17.9644 112.522 18.6549C111.905 19.5209 110.927 20.0331 109.8 20.0331C107.754 20.0331 106.183 18.2657 106.112 15.365H115.976V14.3902C115.929 11.0615 112.607 9.23077 109.633 9.23077ZM109.657 10.1977C111.299 10.1977 113.059 11.8699 113.107 14.3902H106.136C106.35 11.751 107.873 10.1977 109.657 10.1977Z" fill="#383741"/>
<circle cx="163.369" cy="12.57" r="8.63045" fill="#FFC5C5"/>
<circle cx="146.11" cy="12.57" r="8.63045" fill="#FD6C53"/>
<circle cx="128.845" cy="12.57" r="8.63045" fill="#BDE0DA"/>
</svg>
